<svg width="128" height="75" viewBox="0 0 128 75" fill="none" xmlns="http://www.w3.org/2000/svg">
<path d="M8.28125 35C5.79427 35 3.78906 34.2253 2.26562 32.6758C0.755208 31.1263 0 28.9583 0 26.1719V10.3125C0 6.97917 0.657552 4.42708 1.97266 2.65625C3.30078 0.885417 5.45573 0 8.4375 0C10.0651 0 11.5104 0.299479 12.7734 0.898438C14.0495 1.4974 15.0521 2.39583 15.7812 3.59375C16.5104 4.77865 16.875 6.27604 16.875 8.08594V14.0234H10.0391V8.94531C10.0391 7.91667 9.90885 7.22656 9.64844 6.875C9.38802 6.51042 8.98438 6.32812 8.4375 6.32812C7.79948 6.32812 7.36979 6.5625 7.14844 7.03125C6.92708 7.48698 6.81641 8.09896 6.81641 8.86719V26.0742C6.81641 27.0247 6.95312 27.6953 7.22656 28.0859C7.51302 28.4766 7.91667 28.6719 8.4375 28.6719C9.02344 28.6719 9.43359 28.431 9.66797 27.9492C9.91536 27.4674 10.0391 26.8424 10.0391 26.0742V19.8828H16.9531V26.3867C16.9531 29.4076 16.1914 31.6016 14.668 32.9688C13.1445 34.3229 11.0156 35 8.28125 35ZM19.2578 34.6875V0.3125H29.8047C31.5625 0.3125 32.8906 0.716146 33.7891 1.52344C34.6875 2.31771 35.2865 3.4375 35.5859 4.88281C35.8984 6.3151 36.0547 8.0013 36.0547 9.94141C36.0547 11.8164 35.8138 13.3138 35.332 14.4336C34.8633 15.5534 33.9714 16.3281 32.6562 16.7578C33.737 16.9792 34.4922 17.5195 34.9219 18.3789C35.3646 19.2253 35.5859 20.3255 35.5859 21.6797V34.6875H28.8086V21.2305C28.8086 20.2279 28.6003 19.6094 28.1836 19.375C27.7799 19.1276 27.1224 19.0039 26.2109 19.0039V34.6875H19.2578ZM26.25 13.0469H27.9102C28.8607 13.0469 29.3359 12.0117 29.3359 9.94141C29.3359 8.60026 29.2318 7.72135 29.0234 7.30469C28.8151 6.88802 28.4245 6.67969 27.8516 6.67969H26.25V13.0469ZM38.0078 34.6875V0.3125H44.6484V34.6875H38.0078ZM55.5469 35C52.4089 35 50.1432 34.2188 48.75 32.6562C47.3698 31.0938 46.6797 28.6068 46.6797 25.1953V21.8359H53.4766V26.1328C53.4766 26.9271 53.5938 27.5521 53.8281 28.0078C54.0755 28.4505 54.4987 28.6719 55.0977 28.6719C55.7227 28.6719 56.1523 28.4896 56.3867 28.125C56.6341 27.7604 56.7578 27.1615 56.7578 26.3281C56.7578 25.2734 56.6536 24.3945 56.4453 23.6914C56.237 22.9753 55.8724 22.2982 55.3516 21.6602C54.8438 21.0091 54.1341 20.2539 53.2227 19.3945L50.1367 16.4648C47.832 14.2904 46.6797 11.8034 46.6797 9.00391C46.6797 6.07422 47.3568 3.84115 48.7109 2.30469C50.0781 0.768229 52.0508 0 54.6289 0C57.7799 0 60.013 0.839844 61.3281 2.51953C62.6562 4.19922 63.3203 6.7513 63.3203 10.1758H56.3281V7.8125C56.3281 7.34375 56.1914 6.97917 55.918 6.71875C55.6576 6.45833 55.2995 6.32812 54.8438 6.32812C54.2969 6.32812 53.8932 6.48438 53.6328 6.79688C53.3854 7.09635 53.2617 7.48698 53.2617 7.96875C53.2617 8.45052 53.3919 8.97135 53.6523 9.53125C53.9128 10.0911 54.4271 10.7357 55.1953 11.4648L59.1602 15.2734C59.9544 16.0286 60.6836 16.8294 61.3477 17.6758C62.0117 18.5091 62.5456 19.4857 62.9492 20.6055C63.3529 21.7122 63.5547 23.0664 63.5547 24.668C63.5547 27.8971 62.9557 30.4297 61.7578 32.2656C60.5729 34.0885 58.5026 35 55.5469 35ZM68.8086 34.6875V6.91406H64.7266V0.3125H79.7656V6.91406H75.6836V34.6875H68.8086ZM81.3672 34.6875V0.3125H88.0078V34.6875H81.3672ZM89.8047 34.6875L93.125 0.3125H104.785L108.047 34.6875H101.543L101.055 29.1406H96.9141L96.4844 34.6875H89.8047ZM97.4023 23.6523H100.527L99.0234 6.17188H98.7109L97.4023 23.6523ZM110.156 34.6875V0.3125H117.227L120.391 16.7773V0.3125H127.031V34.6875H120.312L116.875 17.5V34.6875H110.156Z" fill="url(#paint0_linear_376_24)"/>
<path d="M0.273438 74.6875V40.3125H10.7422L13.6328 61.2695L16.5039 40.3125H27.0703V74.6875H20.7812V49.9219L16.8359 74.6875H10.6641L6.48438 49.9219V74.6875H0.273438ZM38.0664 75C35.2018 75 33.0924 74.1992 31.7383 72.5977C30.3841 70.9831 29.707 68.6133 29.707 65.4883V40.3125H36.3867V65.2148C36.3867 65.7878 36.4193 66.3411 36.4844 66.875C36.5495 67.3958 36.6992 67.8255 36.9336 68.1641C37.168 68.5026 37.5456 68.6719 38.0664 68.6719C38.6003 68.6719 38.9844 68.5091 39.2188 68.1836C39.4531 67.8451 39.5964 67.4089 39.6484 66.875C39.7135 66.3411 39.7461 65.7878 39.7461 65.2148V40.3125H46.4258V65.4883C46.4258 68.6133 45.7487 70.9831 44.3945 72.5977C43.0404 74.1992 40.931 75 38.0664 75ZM49.0625 74.6875V40.3125H56.1328L59.2969 56.7773V40.3125H65.9375V74.6875H59.2188L55.7812 57.5V74.6875H49.0625ZM61.1328 38.1445C60.1693 38.1445 59.2839 37.9948 58.4766 37.6953C57.6823 37.3958 56.9596 37.1029 56.3086 36.8164C55.6576 36.5169 55.0651 36.3672 54.5312 36.3672C54.1927 36.3672 53.8737 36.4648 53.5742 36.6602C53.2747 36.8555 52.9948 37.2005 52.7344 37.6953L49.8438 36.1719C50.1693 35.3776 50.5208 34.6549 50.8984 34.0039C51.2891 33.3398 51.7839 32.8125 52.3828 32.4219C52.9818 32.0182 53.7435 31.8164 54.668 31.8164C55.5924 31.8164 56.4258 31.9531 57.168 32.2266C57.9232 32.5 58.6068 32.7734 59.2188 33.0469C59.8438 33.3203 60.4102 33.457 60.918 33.457C61.2695 33.457 61.5951 33.3464 61.8945 33.125C62.194 32.9036 62.474 32.526 62.7344 31.9922L65.9766 33.0469C65.6641 33.9193 65.319 34.7461 64.9414 35.5273C64.5638 36.3086 64.0755 36.9401 63.4766 37.4219C62.8906 37.9036 62.1094 38.1445 61.1328 38.1445ZM77.1875 75C74.4401 75 72.3372 74.1732 70.8789 72.5195C69.4336 70.8529 68.7109 68.4505 68.7109 65.3125V48.9844C68.7109 46.0417 69.4271 43.8086 70.8594 42.2852C72.3047 40.7617 74.4141 40 77.1875 40C79.9609 40 82.0638 40.7617 83.4961 42.2852C84.9414 43.8086 85.6641 46.0417 85.6641 48.9844V65.3125C85.6641 68.4505 84.9349 70.8529 83.4766 72.5195C82.0312 74.1732 79.9349 75 77.1875 75ZM77.2461 68.6719C78.2878 68.6719 78.8086 67.6628 78.8086 65.6445V48.8672C78.8086 47.1745 78.3008 46.3281 77.2852 46.3281C76.1393 46.3281 75.5664 47.194 75.5664 48.9258V65.6836C75.5664 66.7513 75.6966 67.5195 75.957 67.9883C76.2174 68.444 76.6471 68.6719 77.2461 68.6719ZM87.5391 74.6875V68.4375L95.4102 46.6406H88.3008V40.3125H102.656V46.3281L94.6484 68.3594H102.324V74.6875H87.5391Z" fill="white"/>
<defs>
<linearGradient id="paint0_linear_376_24" x1="-1.25" y1="37.6875" x2="128.75" y2="37.6875" gradientUnits="userSpaceOnUse">
<stop stop-color="#E0C3FC"/>
<stop offset="1" stop-color="#8EC5FC"/>
</linearGradient>
</defs>
</svg>
