<svg width="137" height="75" viewBox="0 0 137 75" fill="none" xmlns="http://www.w3.org/2000/svg">
<path d="M0 34.6875V0.3125H9.08203C10.9831 0.3125 12.487 0.735677 13.5938 1.58203C14.7135 2.42839 15.5143 3.63281 15.9961 5.19531C16.4779 6.75781 16.7188 8.61979 16.7188 10.7812C16.7188 12.8646 16.5169 14.681 16.1133 16.2305C15.7096 17.7669 14.987 18.9583 13.9453 19.8047C12.9167 20.651 11.4518 21.0742 9.55078 21.0742H6.75781V34.6875H0ZM6.75781 14.9023H7.14844C8.42448 14.9023 9.20573 14.5443 9.49219 13.8281C9.77865 13.112 9.92188 12.0573 9.92188 10.6641C9.92188 9.36198 9.77865 8.35938 9.49219 7.65625C9.21875 6.9401 8.5612 6.58203 7.51953 6.58203H6.75781V14.9023ZM18.9062 34.6875V0.3125H29.4531C31.2109 0.3125 32.5391 0.716146 33.4375 1.52344C34.3359 2.31771 34.9349 3.4375 35.2344 4.88281C35.5469 6.3151 35.7031 8.0013 35.7031 9.94141C35.7031 11.8164 35.4622 13.3138 34.9805 14.4336C34.5117 15.5534 33.6198 16.3281 32.3047 16.7578C33.3854 16.9792 34.1406 17.5195 34.5703 18.3789C35.013 19.2253 35.2344 20.3255 35.2344 21.6797V34.6875H28.457V21.2305C28.457 20.2279 28.2487 19.6094 27.832 19.375C27.4284 19.1276 26.7708 19.0039 25.8594 19.0039V34.6875H18.9062ZM25.8984 13.0469H27.5586C28.5091 13.0469 28.9844 12.0117 28.9844 9.94141C28.9844 8.60026 28.8802 7.72135 28.6719 7.30469C28.4635 6.88802 28.0729 6.67969 27.5 6.67969H25.8984V13.0469ZM46.1719 35C43.4245 35 41.3216 34.1732 39.8633 32.5195C38.418 30.8529 37.6953 28.4505 37.6953 25.3125V8.98438C37.6953 6.04167 38.4115 3.80859 39.8438 2.28516C41.2891 0.761719 43.3984 0 46.1719 0C48.9453 0 51.0482 0.761719 52.4805 2.28516C53.9258 3.80859 54.6484 6.04167 54.6484 8.98438V25.3125C54.6484 28.4505 53.9193 30.8529 52.4609 32.5195C51.0156 34.1732 48.9193 35 46.1719 35ZM46.2305 28.6719C47.2721 28.6719 47.793 27.6628 47.793 25.6445V8.86719C47.793 7.17448 47.2852 6.32812 46.2695 6.32812C45.1237 6.32812 44.5508 7.19401 44.5508 8.92578V25.6836C44.5508 26.7513 44.681 27.5195 44.9414 27.9883C45.2018 28.444 45.6315 28.6719 46.2305 28.6719ZM57.4219 34.6875V0.3125H66.875C69.349 0.3125 71.2109 1.0026 72.4609 2.38281C73.7109 3.75 74.3359 5.75521 74.3359 8.39844V24.4922C74.3359 27.7474 73.763 30.2604 72.6172 32.0312C71.4844 33.8021 69.4922 34.6875 66.6406 34.6875H57.4219ZM64.3359 28.6133H65.5273C66.7904 28.6133 67.4219 28.0013 67.4219 26.7773V9.04297C67.4219 7.89714 67.2656 7.16146 66.9531 6.83594C66.6536 6.4974 66.0352 6.32812 65.0977 6.32812H64.3359V28.6133ZM85.0977 35C82.2331 35 80.1237 34.1992 78.7695 32.5977C77.4154 30.9831 76.7383 28.6133 76.7383 25.4883V0.3125H83.418V25.2148C83.418 25.7878 83.4505 26.3411 83.5156 26.875C83.5807 27.3958 83.7305 27.8255 83.9648 28.1641C84.1992 28.5026 84.5768 28.6719 85.0977 28.6719C85.6315 28.6719 86.0156 28.5091 86.25 28.1836C86.4844 27.8451 86.6276 27.4089 86.6797 26.875C86.7448 26.3411 86.7773 25.7878 86.7773 25.2148V0.3125H93.457V25.4883C93.457 28.6133 92.7799 30.9831 91.4258 32.5977C90.0716 34.1992 87.9622 35 85.0977 35ZM104.102 35C101.615 35 99.6094 34.2253 98.0859 32.6758C96.5755 31.1263 95.8203 28.9583 95.8203 26.1719V10.3125C95.8203 6.97917 96.4779 4.42708 97.793 2.65625C99.1211 0.885417 101.276 0 104.258 0C105.885 0 107.331 0.299479 108.594 0.898438C109.87 1.4974 110.872 2.39583 111.602 3.59375C112.331 4.77865 112.695 6.27604 112.695 8.08594V14.0234H105.859V8.94531C105.859 7.91667 105.729 7.22656 105.469 6.875C105.208 6.51042 104.805 6.32812 104.258 6.32812C103.62 6.32812 103.19 6.5625 102.969 7.03125C102.747 7.48698 102.637 8.09896 102.637 8.86719V26.0742C102.637 27.0247 102.773 27.6953 103.047 28.0859C103.333 28.4766 103.737 28.6719 104.258 28.6719C104.844 28.6719 105.254 28.431 105.488 27.9492C105.736 27.4674 105.859 26.8424 105.859 26.0742V19.8828H112.773V26.3867C112.773 29.4076 112.012 31.6016 110.488 32.9688C108.965 34.3229 106.836 35 104.102 35ZM118.027 34.6875V6.91406H113.945V0.3125H128.984V6.91406H124.902V34.6875H118.027Z" fill="white"/>
<path d="M0 74.6875V40.3125H9.45312C11.9271 40.3125 13.7891 41.0026 15.0391 42.3828C16.2891 43.75 16.9141 45.7552 16.9141 48.3984V64.4922C16.9141 67.7474 16.3411 70.2604 15.1953 72.0312C14.0625 73.8021 12.0703 74.6875 9.21875 74.6875H0ZM6.91406 68.6133H8.10547C9.36849 68.6133 10 68.0013 10 66.7773V49.043C10 47.8971 9.84375 47.1615 9.53125 46.8359C9.23177 46.4974 8.61328 46.3281 7.67578 46.3281H6.91406V68.6133ZM19.7266 74.6875V40.3125H33.4766V46.9531H26.7188V53.6523H33.2031V60.1172H26.7188V67.9883H33.9258V74.6875H19.7266ZM44.375 75C41.237 75 38.9714 74.2188 37.5781 72.6562C36.1979 71.0938 35.5078 68.6068 35.5078 65.1953V61.8359H42.3047V66.1328C42.3047 66.9271 42.4219 67.5521 42.6562 68.0078C42.9036 68.4505 43.3268 68.6719 43.9258 68.6719C44.5508 68.6719 44.9805 68.4896 45.2148 68.125C45.4622 67.7604 45.5859 67.1615 45.5859 66.3281C45.5859 65.2734 45.4818 64.3945 45.2734 63.6914C45.0651 62.9753 44.7005 62.2982 44.1797 61.6602C43.6719 61.0091 42.9622 60.2539 42.0508 59.3945L38.9648 56.4648C36.6602 54.2904 35.5078 51.8034 35.5078 49.0039C35.5078 46.0742 36.1849 43.8411 37.5391 42.3047C38.9062 40.7682 40.8789 40 43.457 40C46.6081 40 48.8411 40.8398 50.1562 42.5195C51.4844 44.1992 52.1484 46.7513 52.1484 50.1758H45.1562V47.8125C45.1562 47.3438 45.0195 46.9792 44.7461 46.7188C44.4857 46.4583 44.1276 46.3281 43.6719 46.3281C43.125 46.3281 42.7214 46.4844 42.4609 46.7969C42.2135 47.0964 42.0898 47.487 42.0898 47.9688C42.0898 48.4505 42.2201 48.9714 42.4805 49.5312C42.7409 50.0911 43.2552 50.7357 44.0234 51.4648L47.9883 55.2734C48.7826 56.0286 49.5117 56.8294 50.1758 57.6758C50.8398 58.5091 51.3737 59.4857 51.7773 60.6055C52.181 61.7122 52.3828 63.0664 52.3828 64.668C52.3828 67.8971 51.7839 70.4297 50.5859 72.2656C49.401 74.0885 47.3307 75 44.375 75ZM54.375 74.6875V40.3125H61.0156V74.6875H54.375ZM70.8398 75C65.931 75 63.4766 71.4844 63.4766 64.4531V49.6289C63.4766 43.2096 66.2891 40 71.9141 40C74.2318 40 76.0091 40.4688 77.2461 41.4062C78.4831 42.3307 79.3359 43.6849 79.8047 45.4688C80.2734 47.2526 80.5078 49.4271 80.5078 51.9922H73.7891V48.9453C73.7891 48.2031 73.6849 47.5846 73.4766 47.0898C73.2812 46.582 72.8646 46.3281 72.2266 46.3281C71.4323 46.3281 70.9049 46.5951 70.6445 47.1289C70.3971 47.6628 70.2734 48.2487 70.2734 48.8867V65.5469C70.2734 66.4714 70.3906 67.2266 70.625 67.8125C70.8724 68.3854 71.3477 68.6719 72.0508 68.6719C72.7799 68.6719 73.2617 68.3854 73.4961 67.8125C73.7435 67.2266 73.8672 66.4583 73.8672 65.5078V60.6055H72.0312V54.668H80.4297V74.6875H77.6758L76.5039 71.7969C75.306 73.9323 73.418 75 70.8398 75ZM83.1641 74.6875V40.3125H90.2344L93.3984 56.7773V40.3125H100.039V74.6875H93.3203L89.8828 57.5V74.6875H83.1641ZM103.086 74.6875V40.3125H116.836V46.9531H110.078V53.6523H116.562V60.1172H110.078V67.9883H117.285V74.6875H103.086ZM119.57 74.6875V40.3125H130.117C131.875 40.3125 133.203 40.7161 134.102 41.5234C135 42.3177 135.599 43.4375 135.898 44.8828C136.211 46.3151 136.367 48.0013 136.367 49.9414C136.367 51.8164 136.126 53.3138 135.645 54.4336C135.176 55.5534 134.284 56.3281 132.969 56.7578C134.049 56.9792 134.805 57.5195 135.234 58.3789C135.677 59.2253 135.898 60.3255 135.898 61.6797V74.6875H129.121V61.2305C129.121 60.2279 128.913 59.6094 128.496 59.375C128.092 59.1276 127.435 59.0039 126.523 59.0039V74.6875H119.57ZM126.562 53.0469H128.223C129.173 53.0469 129.648 52.0117 129.648 49.9414C129.648 48.6003 129.544 47.7214 129.336 47.3047C129.128 46.888 128.737 46.6797 128.164 46.6797H126.562V53.0469Z" fill="url(#paint0_linear_376_26)"/>
<defs>
<linearGradient id="paint0_linear_376_26" x1="-1.52344" y1="37.6875" x2="137.477" y2="37.6875" gradientUnits="userSpaceOnUse">
<stop stop-color="#FA709A"/>
<stop offset="1" stop-color="#FEE140"/>
</linearGradient>
</defs>
</svg>
